<svg width="306" height="11" viewBox="0 0 306 11" fill="none" xmlns="http://www.w3.org/2000/svg">
<path d="M2.89272 3.03125C4.60784 2.91718 6.83865 3.00612 8.55039 3.13736C9.08685 3.17803 8.81873 3.39348 9.19005 3.43097C9.90768 3.50404 10.5849 3.39058 11.2979 3.47828C11.5355 3.50835 11.2453 3.84855 11.4944 3.87238C12.8553 4.00051 14.1431 3.89381 15.521 3.9407C22.208 4.15475 28.8789 4.18228 35.5034 3.9909C35.5908 3.98697 35.678 3.98285 35.7652 3.97853C37.9333 3.86288 40.7811 3.8608 43.1293 3.57689C43.403 3.54212 43.2192 3.25931 43.2699 3.23146C44.0762 2.80447 43.8322 3.41742 44.382 3.4617C46.5358 3.63948 48.8903 3.55954 50.9377 3.36998C51.8 3.2892 50.9042 2.73552 51.8028 3.03249C51.8659 3.05252 51.6507 3.37325 51.8963 3.39812C52.4228 3.45468 53.4619 3.36555 53.8756 3.37826C54.708 3.40305 54.804 3.3973 55.5862 3.37983C56.6189 3.35993 57.8689 3.4862 58.9889 3.39214C59.2246 3.37121 58.9046 3.05678 59.2815 2.99446C59.4816 2.96152 59.8606 2.94801 60.2318 2.95301C60.5404 2.95788 60.8459 2.97525 61.006 3.00676C61.3427 3.07367 61.2062 3.32949 61.2672 3.38572C61.7714 3.86094 62.9054 3.14731 63.059 3.12501C65.7611 2.74586 68.1353 3.03776 70.6943 2.95409C72.6445 2.88874 74.7263 2.70289 76.5843 2.67745C78.7995 2.64843 80.6792 2.78931 82.8236 2.73308C83.0504 2.72758 82.7797 2.35344 83.0574 2.34601C83.559 2.33279 84.0407 2.32285 84.5415 2.31638C86.9807 2.28476 89.4109 2.33131 91.8468 2.53068C92.14 2.55506 91.7641 2.88827 92.057 2.93245C93.851 3.195 96.6936 3.84085 97.7566 2.39761C98.9705 2.45214 100.449 2.51058 101.538 2.80341C102.238 2.99195 101.552 3.35131 102.418 3.1994C102.613 3.16562 102.361 2.84885 102.653 2.82212C103.881 2.70991 105.218 2.81913 106.435 2.66514C106.683 2.63309 106.618 2.34939 106.689 2.29895C107.283 1.89043 108.261 2.58309 108.467 2.63519C110.094 3.02386 111.29 2.8964 112.801 2.94114C113.161 2.95226 112.745 2.56139 113.092 2.5586C114.361 2.55446 115.643 2.59404 116.971 2.76221C117.446 2.82741 117.931 2.89636 118.401 2.97058C118.772 3.0292 118.411 3.33427 118.588 3.37874C119.37 3.56845 119.573 2.96352 120.323 3.121C120.482 3.15306 120.383 3.42752 120.412 3.45888C120.856 3.95099 121.274 3.28208 121.39 3.26954C122.879 3.09399 123.832 3.80346 125.28 3.69148C125.453 3.67704 125.059 3.33012 125.545 3.31077C128.612 3.1761 131.908 3.16198 134.896 3.11839C135.045 3.11422 135.196 3.10906 135.347 3.10338C135.835 3.08269 135.525 3.38939 135.56 3.41775C136.13 3.85363 136.362 3.12856 136.516 3.07947C137.75 2.70123 139.037 3.06549 139.794 2.13529C142.924 1.8254 146.031 1.44384 149.143 1.27141C151.53 1.13878 153.898 1.09499 156.272 1.30516C156.342 1.31049 156.232 1.65079 156.371 1.66001C158.015 1.77877 157.709 1.27133 158.776 0.596134C159.033 0.426926 159.925 1.16962 159.997 1.22446C160.275 1.42465 160.006 1.9308 160.098 1.96852C160.854 2.26489 160.679 0.618562 161.715 0.5973C161.747 0.599449 161.619 0.905416 161.705 0.933975C161.973 1.02372 162.23 0.89886 162.484 0.999721C163.101 1.2334 163.308 2.03128 164.209 1.56101C164.323 1.50059 164.153 0.563682 165.06 0.609025C165.415 0.625767 167.035 0.627458 167.491 0.701125C167.937 0.771872 167.623 1.06617 167.655 1.07993C168.854 1.50987 168.399 1.66401 168.972 2.27335C169.55 2.88332 169.444 1.47679 169.698 1.33071C169.947 1.18411 170.83 1.5581 171.034 1.6857C171.241 1.81239 170.964 1.98793 171.149 2.06371C172.407 2.56696 171.76 1.40545 172.196 1.21188C173.251 0.759809 173.935 1.86567 174.831 2.06226C175.072 2.11569 174.897 1.85875 175.122 1.86079C175.993 1.87226 176.485 2.25968 177.503 2.09615C177.67 2.06928 178.55 1.56021 178.999 2.08801C179.062 2.1638 178.821 2.39112 179.177 2.50055C179.713 2.66509 180.686 2.86014 181.283 2.84909C181.722 2.84051 181.282 2.35475 181.807 2.55397C182.042 2.64216 181.564 2.83585 182.007 2.98039C182.449 3.12725 183.603 3.23334 184.049 3.25687C184.486 3.28225 184.272 2.94046 184.308 2.92156C184.387 2.88321 184.544 2.84665 184.721 2.81466C185.045 2.75636 185.421 2.71533 185.47 2.71866C189.254 2.92076 192.727 3.61512 196.434 3.52555C196.727 3.51888 196.54 3.17277 196.585 3.16823C197.581 3.04795 196.779 3.93817 197.463 4.2569C197.374 3.56174 197.791 3.6966 198.488 3.63277C198.823 3.60131 198.645 3.32987 198.676 3.30293C199.184 2.90379 199.526 3.43488 199.613 3.5438C199.934 3.94444 200.306 3.48071 200.528 3.74791C200.751 4.01307 200.229 4.3974 200.899 4.3992C201.089 4.1529 200.601 3.49996 201.106 3.39962C203.039 3.0244 206.612 3.52261 208.169 3.55851C209.71 3.59739 210.218 3.545 211.117 3.62594C212.75 3.77346 212.146 3.29705 213.164 3.07287C214.188 2.85318 213.688 4.03718 213.832 4.29165C213.97 4.5467 214.129 4.2861 214.307 4.42826C214.479 4.57052 214.105 4.73785 214.505 4.7966C214.824 4.84126 215.527 4.61348 215.935 4.42712C216.074 4.36495 216.18 4.2991 216.224 4.2376C216.596 3.71215 216.161 3.07234 217.216 3.3935C217.277 3.41209 217.043 3.70118 217.278 3.75664C219.166 4.1867 221.164 4.3212 223.074 4.61539C223.336 4.65617 223.085 4.99208 223.239 5.01968C224.84 5.3041 224.288 4.69743 225.186 4.07814C224.962 4.93395 225.434 5.47998 226.656 5.51374C227.394 5.53344 227.274 5.15351 227.752 4.89687C227.895 4.81953 228.413 5.08678 228.509 4.91079C228.827 4.33553 228.346 3.68188 229.598 3.95485C229.653 3.96771 229.474 4.28299 229.665 4.3042C230.891 4.44122 231.044 3.83622 232.371 3.76528C233.412 3.70967 235.264 4.06959 236.452 4.11507C236.438 5.08581 237.561 4.84967 238.004 4.17323C238.776 4.18865 239.607 4.13523 240.353 4.21153C240.609 4.23748 240.447 4.52196 240.48 4.55161C240.987 5.01671 241.309 4.35787 241.474 4.32834C243.269 4.03596 244.754 4.48359 246.455 3.93911C246.515 3.91949 246.592 3.24248 247.069 3.71665C247.1 3.74938 246.545 4.07763 247.353 4.07019C248.165 4.06277 249.705 4.3588 250.811 3.99142C250.989 3.93343 251.336 3.66436 251.705 3.59739C251.903 3.56193 252.109 3.58227 252.307 3.71897C252.384 3.77282 252.314 3.97031 252.426 4.07173C252.789 4.39439 252.935 3.70345 253.372 4.25616C253.81 4.80876 254.685 5.18701 255.789 4.70529C255.825 4.691 256.052 4.133 256.41 4.11447C256.979 4.0856 257.794 4.13435 258.387 4.08313C258.67 4.05855 258.462 3.73891 258.51 3.72886C260.406 3.38762 261.786 3.57155 263.844 3.53779C264.22 3.53229 265.263 2.99165 266.017 3.29685C266.844 3.63121 266.153 5.33236 267.949 4.80651C268.273 4.71304 268.602 4.23805 269.001 3.82422C269.511 3.30503 270.104 2.88453 270.87 3.43872C273.437 3.00807 275.857 3.44475 278.411 3.00281C278.526 2.98317 278.894 2.39249 279.167 2.39593C279.573 2.40209 279.791 2.67189 280.091 2.6868C281.289 2.7574 282.431 2.52993 283.599 2.59456C284.049 2.61952 283.871 2.89571 284.409 2.92902C284.939 2.96346 285.316 2.60709 286.015 2.82518C286.563 2.99342 287.044 3.78481 287.736 3.93358C287.831 3.19233 288.319 3.24494 289.213 3.1489C289.388 3.13087 289.235 2.85091 289.32 2.82909C289.663 2.73443 289.938 2.98728 290.264 2.88525C290.342 2.86083 290.381 2.60847 290.448 2.5744C291.038 2.27612 291.813 2.99143 291.936 3.11691C292.433 3.59336 292.749 3.3185 293.152 3.55307C293.543 3.78649 292.874 3.83921 293.351 4.03044C294.08 4.32181 294.996 4.54377 295.876 4.66872C295.884 4.66999 295.907 4.67154 295.915 4.67198C296.224 4.68236 296.522 4.69187 296.803 4.70529C297.228 4.72435 296.951 4.37286 297.012 4.36768C297.898 4.31452 298.766 4.72221 299.295 4.07392C299.796 5.86516 299.837 3.92958 301.077 4.38297C301.174 4.42005 301.224 5.25721 300.839 5.34684C300.457 5.43686 299.905 5.13644 299.37 5.29449C299.242 5.33058 298.493 6.06827 298.395 6.11114C297.626 6.44173 297.572 5.19988 297.534 5.1296C297.108 4.37463 296.2 5.18167 295.972 5.23306C295.947 5.23853 295.922 5.24377 295.897 5.24878C295.877 5.24763 295.817 5.24359 295.797 5.24026C294.679 5.32182 293.845 4.95499 292.974 4.96763C292.389 4.97285 292.178 5.76002 291.763 5.65615C290.383 5.32239 290.006 4.12682 288.538 4.95167C288.219 5.13099 288.433 6.03814 287.451 5.24994C287.401 5.20046 286.658 4.50124 286.181 4.87854C286.12 4.92589 286.106 5.18436 286.029 5.20155C285.531 5.31342 285.184 5.09003 284.648 5.16775C284.086 5.24469 283.428 5.37393 282.806 5.27626C282.433 5.21742 281.935 4.73111 281.761 4.61235C281.246 4.26932 280.686 4.82915 280.368 4.41983C280.036 4.00883 280.68 3.37363 279.803 3.11525C279.778 3.78811 279.715 4.4792 279.675 5.1561C277.826 5.15736 275.984 5.00411 274.106 5.12574C273.879 5.14132 274.13 5.49085 273.887 5.51701C272.842 5.62738 271.923 5.42222 270.821 5.59567C270.298 5.681 269.739 5.89388 269.162 6.07991C268.837 6.18511 268.524 6.28012 268.202 6.33853C267.607 5.61001 266.307 5.96894 265.348 5.97332C265.013 5.97494 265.016 5.76863 264.774 5.72037C263.855 5.544 264.33 6.1888 264.093 6.3149C263.074 6.85434 262.856 5.32778 261.613 5.46718C261.545 5.47417 260.803 6.35801 260.697 6.41797C260.014 6.80803 260.555 6.14304 260.108 6.11874C259.289 6.07434 258.709 5.92513 257.774 6.2401C257.503 6.33293 256.872 6.89513 256.3 6.54116C256.225 6.49484 256.244 6.22146 256.186 6.2099C255.129 6.02245 255.161 6.87337 254.583 7.20234C254.004 7.53139 253.04 7.00084 252.843 6.84196C252.326 6.43254 253.209 6.63301 253.233 6.58794C253.514 6.05759 252.848 6.18728 252.332 6.17205C252.257 5.65986 251.958 5.49747 251.809 5.61905C251.719 5.69444 251.686 5.87953 251.798 6.15897C251.803 6.17182 251.818 6.18004 251.839 6.18494C251.951 6.21032 252.243 6.14493 252.332 6.17205C252.21 6.42584 252.053 6.61655 251.868 6.73926C251.452 7.02364 250.865 6.94291 250.24 6.43603C249.815 6.09604 250.18 5.66151 248.956 5.86862C248.396 5.96175 248.642 6.52714 248.154 6.70433C247.039 7.10849 245.548 6.62532 244.389 6.74595C243.968 6.78981 244.388 7.09181 244.102 7.1325C243.339 7.24134 242.657 7.02405 241.888 7.16464C241.818 7.17774 241.996 7.50303 241.758 7.51321C239.943 7.59626 238.356 7.415 236.458 7.43112C235.542 7.43966 233.902 7.63225 232.95 7.59576C231.3 7.53716 229.276 7.04141 227.865 7.13213C226.947 7.1899 227.14 7.52262 226.739 7.73883C225.968 8.15856 224.637 7.33757 224.457 7.20964C224.452 7.20584 225.249 7.15342 224.832 6.97086C224.595 6.61045 224.466 7.2084 224.457 7.20964C224.34 7.12936 222.758 6.99315 222.44 7.0393C222.265 7.06566 222.347 7.38221 222.257 7.39C220.112 7.56607 217.961 7.50673 215.75 7.09714C215.713 7.08625 215.812 6.7463 215.723 6.72505C215.7 6.71931 215.678 6.71379 215.655 6.70847C214.863 6.50214 213.939 6.92984 213 7.17775C212.004 7.435 211.206 7.35956 210.602 6.76555C209.835 6.84906 208.733 6.59526 208.1 6.43958C207.462 6.28404 207.379 6.96456 207.324 6.97846C205.587 7.42054 204.572 7.03471 202.761 6.96803C201.901 6.93566 200.181 7.01898 199.253 7.07858C198.502 7.12722 198.078 6.96012 197.386 7.04789C197.295 7.0596 197.381 7.36431 197.353 7.37538C196.59 7.72143 196.968 6.9889 196.815 6.8533C196.253 6.3592 195.92 6.0956 194.936 6.29366C194.71 6.33903 194.032 7.38477 193.614 7.43292C193.075 7.49364 193.295 7.11905 192.734 7.19141C192.686 7.19718 192.688 7.43331 192.343 7.40984C190.748 7.30419 189.014 7.08609 187.351 7.01613C187.126 7.00574 187.394 7.39545 187.067 7.3864C186.211 7.3621 185.318 7.31361 184.425 7.22488C183.666 7.15094 182.933 7.0384 182.245 6.88568C181.866 6.79968 182.135 6.56578 182.06 6.47936C181.607 5.95633 180.817 6.54399 180.697 6.5411C177.866 6.49285 176.008 5.55573 173.338 5.61076C173.189 5.61278 172.024 6.25103 171.586 5.59411C171.56 5.55032 171.092 4.87487 170.643 5.29034C170.614 5.3164 170.902 5.66341 170.369 5.60064C169.831 5.53786 168.965 5.72164 168.242 5.33681C167.999 5.21499 167.482 4.55855 166.75 5.05788C166.701 5.09174 165.617 6.23433 165.229 5.43674C165.165 5.30567 165.245 4.46004 164.395 4.89351C164.231 4.97784 164.53 5.16506 164.097 5.2841C163.468 5.46755 162.573 5.2512 161.799 5.64201C161.667 5.71087 161.057 6.29611 160.592 5.87335C160.516 5.80719 160.65 5.52187 160.399 5.49686C159.183 5.37749 157.919 5.61146 156.714 5.4685C156.277 5.41907 156.481 4.95408 156.015 4.85299C155.54 4.7523 154.656 4.67831 154.177 4.91225C153.708 5.14566 154.259 5.84289 153.56 5.93897C152.215 6.12456 150.868 6.186 149.474 6.21533C147.78 6.24842 146.091 6.24196 144.418 6.38842C143.967 6.42875 144.369 6.64462 143.714 6.7243C141.51 6.96301 138.096 7.80288 135.42 7.75713C135.145 7.74914 134.889 7.72824 134.661 7.69635C132.774 7.40615 135.064 6.88684 133.658 6.81539C132.99 6.77833 132.328 7.66101 132.168 7.69643C130.623 8.05092 129.527 7.71724 128.142 7.87144C127.853 7.90302 128.147 8.23738 127.9 8.26034C127.062 8.34141 126.178 8.20436 125.377 8.24006C125.017 8.25669 125.086 8.51736 124.753 8.4993C123.959 8.4584 123.254 8.34708 122.482 8.09398C122.412 8.07087 122.891 7.7512 122.303 7.7325C121.352 7.70244 120.181 7.43367 119.067 7.6341C118.734 7.69386 118.695 8.29191 118.004 7.84069C117.86 7.74531 118.093 7.04436 117.228 7.6079C117.17 7.64489 116.9 7.78371 116.561 7.89719C116.143 8.07614 115.545 8.21963 115.176 7.87899C115.025 7.73024 114.619 7.12657 114.241 7.20621C114.189 7.21921 114.383 7.54653 114.069 7.56741C112.988 7.63693 111.836 7.57803 110.704 7.65951C110.4 7.68197 110.848 8.02116 110.393 8.04415C109.151 8.10808 107.607 8.00734 106.39 7.89443C105.947 7.8522 106.256 7.57958 106.224 7.54942C105.707 7.05904 105.381 7.71395 105.213 7.75123C104.126 7.97424 103.304 7.66258 102.304 7.74159C102.026 7.7626 102.222 8.07625 102.167 8.10404C101.599 8.3756 102.023 7.81412 101.664 7.75139C100.648 7.57388 99.5309 7.59857 98.5029 7.63945C98.1295 7.65494 98.5498 8.01768 98.2143 8.02741C96.2217 8.092 94.1445 8.06414 92.1972 7.87369C91.831 7.83717 92.0598 7.5564 91.9832 7.49292C91.4546 7.04875 90.6844 7.66264 90.5078 7.72177C89.7009 7.9917 89.3865 7.74649 88.6728 7.79752C87.3932 7.89078 86.0018 7.93304 84.592 7.94649C82.169 7.96925 79.701 7.92036 77.6243 7.90153C73.3553 7.86463 70.0366 7.71165 65.9467 7.93124C65.6868 7.94479 65.962 8.30694 65.7393 8.32336C63.9516 8.44309 62.1769 8.47922 60.3369 8.50742C59.224 8.52296 58.1401 8.55019 57.0448 8.61757C56.805 8.63154 57.1586 8.97568 56.7757 9.00998C56.0044 9.08247 55.0148 9.08984 54.2257 9.00068C53.8372 8.95798 54.3464 8.64004 53.9566 8.60327C53.0744 8.5163 52.0881 8.5238 51.1737 8.61434C50.7894 8.65353 51.3871 8.99204 50.8809 9.01524C47.4009 9.18439 44.0479 9.41885 40.5595 9.25847C40.317 9.24767 40.0439 8.53587 39.5489 8.7227C39.5303 8.92872 39.5536 9.16687 39.5568 9.38494C38.3793 9.52082 37.1667 9.65182 35.8936 9.73256C31.8348 9.94571 28.0062 9.86541 24.0588 9.93914C23.8403 9.94284 24.2275 10.322 23.8041 10.3311C21.3845 10.3832 19.0228 10.5403 16.537 10.2001C16.2902 10.1669 16.4038 9.48156 15.6804 9.59791C15.5526 9.61916 14.4633 9.72928 14.1823 9.88222C14.1443 9.90523 14.3491 10.2208 13.997 10.236C11.9501 10.3185 9.80942 10.2768 7.76021 10.1059C7.42787 10.0777 7.77723 9.73403 7.54084 9.71098C5.87305 9.54996 4.06049 9.82459 2.46425 9.52445C1.40502 9.32188 1.78245 8.73292 1.22175 8.15698C1.14991 8.07579 0.475931 8.06421 0.444843 7.7279C0.356575 6.88258 0.674073 5.95641 0.541945 5.05542C0.508953 4.86157 -0.346366 5.07086 0.159643 4.60168C0.192027 4.57039 0.827597 4.41393 0.990506 4.25427C1.0965 4.14399 0.903945 3.80256 1.12075 3.66116C1.33834 3.51986 1.58101 3.80574 1.95676 3.63865C2.32362 3.46941 2.15167 3.08152 2.89272 3.03125ZM205.241 5.73706C204.654 5.41175 204.567 6.60823 205.204 6.32065C205.234 6.30532 205.271 5.753 205.241 5.73706ZM275.957 4.1113C275.172 3.61384 274.7 4.41288 275.245 4.79665C275.778 5.1812 276.2 4.26217 275.957 4.1113ZM283.813 3.65073C282.93 3.21285 282.757 4.90681 283.712 4.58586C283.767 4.56791 283.863 3.67629 283.813 3.65073ZM3.84368 7.97862C3.83453 7.96283 3.36229 7.95065 3.35214 7.96642C3.10336 8.34812 4.04728 8.37227 3.84368 7.97862ZM291.583 3.94092C291.346 3.66406 290.52 3.80322 290.813 4.13797C291.053 4.40598 291.869 4.28091 291.583 3.94092ZM174.793 2.64553C174.787 2.62676 174.455 2.57617 174.451 2.67721C174.443 3.00226 174.91 2.95942 174.793 2.64553ZM304.897 5.48567C304.485 5.45761 304.103 5.35481 303.797 5.20797C303.793 5.20734 303.783 5.20556 303.779 5.20469C302.694 4.60995 302.287 3.68458 304.027 4.10033L303.966 4.08888C303.984 4.09278 304.001 4.09679 304.019 4.10092C304.144 4.12863 304.07 4.18333 303.942 4.24751L303.992 4.25688C303.724 4.34022 303.315 4.46845 303.615 4.6045C303.71 4.64787 303.803 4.67917 303.892 4.70153L303.874 4.6981C304.615 4.82243 305.162 4.1655 305.983 4.58756C306.152 4.67499 305.025 5.50455 304.893 5.48749C304.894 5.48688 304.895 5.48628 304.897 5.48567ZM204.9 4.30081C204.889 4.28508 204.413 4.27065 204.405 4.28626C204.15 4.66636 205.101 4.69574 204.9 4.30081ZM155.027 1.69069C155.004 1.65756 153.909 1.68181 153.87 1.71548C153.333 2.36482 155.546 2.31733 155.027 1.69069ZM236.471 4.14073C236.977 3.7529 237.588 3.69941 238.002 4.17277C237.494 4.1552 236.982 4.15841 236.471 4.14073Z" fill="#FFF200"/>
</svg>
